<mxfile host="app.diagrams.net" agent="Mozilla/5.0 (Macintosh; Intel Mac OS X 10_15_7) AppleWebKit/537.36 (KHTML, like Gecko) Chrome/134.0.0.0 Safari/537.36" version="26.0.5">
  <diagram name="Page-1" id="J2H-Hz7TwC_CMcP8sLbw">
    <mxGraphModel dx="938" dy="648" grid="1" gridSize="10" guides="1" tooltips="1" connect="1" arrows="1" fold="1" page="1" pageScale="1" pageWidth="827" pageHeight="1169" math="0" shadow="0">
      <root>
        <mxCell id="0" />
        <mxCell id="1" parent="0" />
        <mxCell id="amHc_ICZpfpGxxgdS_sA-6" style="edgeStyle=orthogonalEdgeStyle;rounded=0;orthogonalLoop=1;jettySize=auto;html=1;exitX=1;exitY=0.5;exitDx=0;exitDy=0;entryX=0.5;entryY=0;entryDx=0;entryDy=0;" edge="1" parent="1" source="amHc_ICZpfpGxxgdS_sA-1" target="amHc_ICZpfpGxxgdS_sA-5">
          <mxGeometry relative="1" as="geometry" />
        </mxCell>
        <mxCell id="amHc_ICZpfpGxxgdS_sA-1" value="Microservice 1" style="rounded=1;whiteSpace=wrap;html=1;" vertex="1" parent="1">
          <mxGeometry x="120" y="160" width="120" height="40" as="geometry" />
        </mxCell>
        <mxCell id="amHc_ICZpfpGxxgdS_sA-4" style="edgeStyle=orthogonalEdgeStyle;rounded=0;orthogonalLoop=1;jettySize=auto;html=1;exitX=1;exitY=0.5;exitDx=0;exitDy=0;entryX=0;entryY=0.5;entryDx=0;entryDy=0;" edge="1" parent="1" source="amHc_ICZpfpGxxgdS_sA-2" target="amHc_ICZpfpGxxgdS_sA-1">
          <mxGeometry relative="1" as="geometry" />
        </mxCell>
        <mxCell id="amHc_ICZpfpGxxgdS_sA-2" value="" style="shape=datastore;whiteSpace=wrap;html=1;" vertex="1" parent="1">
          <mxGeometry y="160" width="60" height="40" as="geometry" />
        </mxCell>
        <mxCell id="amHc_ICZpfpGxxgdS_sA-18" style="edgeStyle=orthogonalEdgeStyle;rounded=0;orthogonalLoop=1;jettySize=auto;html=1;exitX=0.75;exitY=0;exitDx=0;exitDy=0;" edge="1" parent="1" source="amHc_ICZpfpGxxgdS_sA-5" target="amHc_ICZpfpGxxgdS_sA-15">
          <mxGeometry relative="1" as="geometry" />
        </mxCell>
        <mxCell id="amHc_ICZpfpGxxgdS_sA-19" style="edgeStyle=orthogonalEdgeStyle;rounded=0;orthogonalLoop=1;jettySize=auto;html=1;exitX=0.75;exitY=1;exitDx=0;exitDy=0;" edge="1" parent="1" source="amHc_ICZpfpGxxgdS_sA-5" target="amHc_ICZpfpGxxgdS_sA-17">
          <mxGeometry relative="1" as="geometry" />
        </mxCell>
        <mxCell id="amHc_ICZpfpGxxgdS_sA-21" style="edgeStyle=orthogonalEdgeStyle;rounded=0;orthogonalLoop=1;jettySize=auto;html=1;exitX=1;exitY=0.5;exitDx=0;exitDy=0;" edge="1" parent="1" source="amHc_ICZpfpGxxgdS_sA-5" target="amHc_ICZpfpGxxgdS_sA-16">
          <mxGeometry relative="1" as="geometry" />
        </mxCell>
        <mxCell id="amHc_ICZpfpGxxgdS_sA-5" value="Microservice API-GW" style="rounded=1;whiteSpace=wrap;html=1;" vertex="1" parent="1">
          <mxGeometry x="280" y="240" width="120" height="40" as="geometry" />
        </mxCell>
        <mxCell id="amHc_ICZpfpGxxgdS_sA-13" style="edgeStyle=orthogonalEdgeStyle;rounded=0;orthogonalLoop=1;jettySize=auto;html=1;exitX=1;exitY=0.5;exitDx=0;exitDy=0;entryX=0;entryY=0.5;entryDx=0;entryDy=0;" edge="1" parent="1" source="amHc_ICZpfpGxxgdS_sA-7" target="amHc_ICZpfpGxxgdS_sA-5">
          <mxGeometry relative="1" as="geometry" />
        </mxCell>
        <mxCell id="amHc_ICZpfpGxxgdS_sA-7" value="Microservice 2" style="rounded=1;whiteSpace=wrap;html=1;" vertex="1" parent="1">
          <mxGeometry x="120" y="240" width="120" height="40" as="geometry" />
        </mxCell>
        <mxCell id="amHc_ICZpfpGxxgdS_sA-11" style="edgeStyle=orthogonalEdgeStyle;rounded=0;orthogonalLoop=1;jettySize=auto;html=1;exitX=1;exitY=0.5;exitDx=0;exitDy=0;entryX=0;entryY=0.5;entryDx=0;entryDy=0;" edge="1" parent="1" source="amHc_ICZpfpGxxgdS_sA-8" target="amHc_ICZpfpGxxgdS_sA-7">
          <mxGeometry relative="1" as="geometry" />
        </mxCell>
        <mxCell id="amHc_ICZpfpGxxgdS_sA-8" value="" style="shape=datastore;whiteSpace=wrap;html=1;" vertex="1" parent="1">
          <mxGeometry y="240" width="60" height="40" as="geometry" />
        </mxCell>
        <mxCell id="amHc_ICZpfpGxxgdS_sA-14" style="edgeStyle=orthogonalEdgeStyle;rounded=0;orthogonalLoop=1;jettySize=auto;html=1;exitX=1;exitY=0.5;exitDx=0;exitDy=0;entryX=0.5;entryY=1;entryDx=0;entryDy=0;" edge="1" parent="1" source="amHc_ICZpfpGxxgdS_sA-9" target="amHc_ICZpfpGxxgdS_sA-5">
          <mxGeometry relative="1" as="geometry" />
        </mxCell>
        <mxCell id="amHc_ICZpfpGxxgdS_sA-9" value="Microservice 3" style="rounded=1;whiteSpace=wrap;html=1;" vertex="1" parent="1">
          <mxGeometry x="120" y="320" width="120" height="40" as="geometry" />
        </mxCell>
        <mxCell id="amHc_ICZpfpGxxgdS_sA-12" style="edgeStyle=orthogonalEdgeStyle;rounded=0;orthogonalLoop=1;jettySize=auto;html=1;exitX=1;exitY=0.5;exitDx=0;exitDy=0;entryX=0;entryY=0.5;entryDx=0;entryDy=0;" edge="1" parent="1" source="amHc_ICZpfpGxxgdS_sA-10" target="amHc_ICZpfpGxxgdS_sA-9">
          <mxGeometry relative="1" as="geometry" />
        </mxCell>
        <mxCell id="amHc_ICZpfpGxxgdS_sA-10" value="" style="shape=datastore;whiteSpace=wrap;html=1;" vertex="1" parent="1">
          <mxGeometry y="320" width="60" height="40" as="geometry" />
        </mxCell>
        <mxCell id="amHc_ICZpfpGxxgdS_sA-15" value="" style="sketch=0;outlineConnect=0;fontColor=#232F3E;gradientColor=none;fillColor=#232F3D;strokeColor=none;dashed=0;verticalLabelPosition=bottom;verticalAlign=top;align=center;html=1;fontSize=12;fontStyle=0;aspect=fixed;pointerEvents=1;shape=mxgraph.aws4.client;" vertex="1" parent="1">
          <mxGeometry x="440" y="160" width="41.05" height="40" as="geometry" />
        </mxCell>
        <mxCell id="amHc_ICZpfpGxxgdS_sA-16" value="" style="sketch=0;outlineConnect=0;fontColor=#232F3E;gradientColor=none;fillColor=#232F3D;strokeColor=none;dashed=0;verticalLabelPosition=bottom;verticalAlign=top;align=center;html=1;fontSize=12;fontStyle=0;aspect=fixed;pointerEvents=1;shape=mxgraph.aws4.client;" vertex="1" parent="1">
          <mxGeometry x="440" y="240" width="41.05" height="40" as="geometry" />
        </mxCell>
        <mxCell id="amHc_ICZpfpGxxgdS_sA-17" value="" style="sketch=0;outlineConnect=0;fontColor=#232F3E;gradientColor=none;fillColor=#232F3D;strokeColor=none;dashed=0;verticalLabelPosition=bottom;verticalAlign=top;align=center;html=1;fontSize=12;fontStyle=0;aspect=fixed;pointerEvents=1;shape=mxgraph.aws4.client;" vertex="1" parent="1">
          <mxGeometry x="440" y="320" width="41.05" height="40" as="geometry" />
        </mxCell>
      </root>
    </mxGraphModel>
  </diagram>
</mxfile>
